<?xml version="1.0" encoding="utf-8" standalone="no"?>
<!DOCTYPE svg PUBLIC "-//W3C//DTD SVG 1.1//EN"
  "http://www.w3.org/Graphics/SVG/1.1/DTD/svg11.dtd">
<svg xmlns:xlink="http://www.w3.org/1999/xlink" width="360pt" height="360pt" viewBox="0 0 360 360" xmlns="http://www.w3.org/2000/svg" version="1.1">
 <metadata>
  <rdf:RDF xmlns:dc="http://purl.org/dc/elements/1.1/" xmlns:cc="http://creativecommons.org/ns#" xmlns:rdf="http://www.w3.org/1999/02/22-rdf-syntax-ns#">
   <cc:Work>
    <dc:type rdf:resource="http://purl.org/dc/dcmitype/StillImage"/>
    <dc:date>2024-05-23T12:09:35.739430</dc:date>
    <dc:format>image/svg+xml</dc:format>
    <dc:creator>
     <cc:Agent>
      <dc:title>Matplotlib v3.6.3, https://matplotlib.org/</dc:title>
     </cc:Agent>
    </dc:creator>
   </cc:Work>
  </rdf:RDF>
 </metadata>
 <defs>
  <style type="text/css">*{stroke-linejoin: round; stroke-linecap: butt}</style>
 </defs>
 <g id="figure_1">
  <g id="patch_1">
   <path d="M 0 360 
L 360 360 
L 360 0 
L 0 0 
z
" style="fill: #ffffff"/>
  </g>
  <g id="axes_1">
   <g id="patch_2">
    <path d="M 45 320.4 
L 100.8 320.4 
L 100.8 264.96 
L 45 264.96 
z
" clip-path="url(#p2a739610c0)" style="fill: #ffffff; stroke: #000000; stroke-width: 0.5; stroke-linejoin: miter"/>
   </g>
   <g id="patch_3">
    <path d="M 45 264.96 
L 100.8 264.96 
L 100.8 209.52 
L 45 209.52 
z
" clip-path="url(#p2a739610c0)" style="fill: #ffffff; stroke: #000000; stroke-width: 0.5; stroke-linejoin: miter"/>
   </g>
   <g id="patch_4">
    <path d="M 45 209.52 
L 100.8 209.52 
L 100.8 154.08 
L 45 154.08 
z
" clip-path="url(#p2a739610c0)" style="fill: #ffffff; stroke: #000000; stroke-width: 0.5; stroke-linejoin: miter"/>
   </g>
   <g id="patch_5">
    <path d="M 45 154.08 
L 100.8 154.08 
L 100.8 98.64 
L 45 98.64 
z
" clip-path="url(#p2a739610c0)" style="fill: #ffffff; stroke: #000000; stroke-width: 0.5; stroke-linejoin: miter"/>
   </g>
   <g id="patch_6">
    <path d="M 45 98.64 
L 100.8 98.64 
L 100.8 43.2 
L 45 43.2 
z
" clip-path="url(#p2a739610c0)" style="stroke: #000000; stroke-width: 0.5; stroke-linejoin: miter"/>
   </g>
   <g id="patch_7">
    <path d="M 100.8 320.4 
L 156.6 320.4 
L 156.6 264.96 
L 100.8 264.96 
z
" clip-path="url(#p2a739610c0)" style="fill: #ffffff; stroke: #000000; stroke-width: 0.5; stroke-linejoin: miter"/>
   </g>
   <g id="patch_8">
    <path d="M 100.8 264.96 
L 156.6 264.96 
L 156.6 209.52 
L 100.8 209.52 
z
" clip-path="url(#p2a739610c0)" style="fill: #ffff00; stroke: #000000; stroke-width: 0.5; stroke-linejoin: miter"/>
   </g>
   <g id="patch_9">
    <path d="M 100.8 209.52 
L 156.6 209.52 
L 156.6 154.08 
L 100.8 154.08 
z
" clip-path="url(#p2a739610c0)" style="fill: #ffffff; stroke: #000000; stroke-width: 0.5; stroke-linejoin: miter"/>
   </g>
   <g id="patch_10">
    <path d="M 100.8 154.08 
L 156.6 154.08 
L 156.6 98.64 
L 100.8 98.64 
z
" clip-path="url(#p2a739610c0)" style="stroke: #000000; stroke-width: 0.5; stroke-linejoin: miter"/>
   </g>
   <g id="patch_11">
    <path d="M 100.8 98.64 
L 156.6 98.64 
L 156.6 43.2 
L 100.8 43.2 
z
" clip-path="url(#p2a739610c0)" style="fill: #ffffff; stroke: #000000; stroke-width: 0.5; stroke-linejoin: miter"/>
   </g>
   <g id="patch_12">
    <path d="M 156.6 320.4 
L 212.4 320.4 
L 212.4 264.96 
L 156.6 264.96 
z
" clip-path="url(#p2a739610c0)" style="fill: #ff0000; stroke: #000000; stroke-width: 0.5; stroke-linejoin: miter"/>
   </g>
   <g id="patch_13">
    <path d="M 156.6 264.96 
L 212.4 264.96 
L 212.4 209.52 
L 156.6 209.52 
z
" clip-path="url(#p2a739610c0)" style="fill: #ffffff; stroke: #000000; stroke-width: 0.5; stroke-linejoin: miter"/>
   </g>
   <g id="patch_14">
    <path d="M 156.6 209.52 
L 212.4 209.52 
L 212.4 154.08 
L 156.6 154.08 
z
" clip-path="url(#p2a739610c0)" style="fill: #ffff00; stroke: #000000; stroke-width: 0.5; stroke-linejoin: miter"/>
   </g>
   <g id="patch_15">
    <path d="M 156.6 154.08 
L 212.4 154.08 
L 212.4 98.64 
L 156.6 98.64 
z
" clip-path="url(#p2a739610c0)" style="fill: #ffffff; stroke: #000000; stroke-width: 0.5; stroke-linejoin: miter"/>
   </g>
   <g id="patch_16">
    <path d="M 156.6 98.64 
L 212.4 98.64 
L 212.4 43.2 
L 156.6 43.2 
z
" clip-path="url(#p2a739610c0)" style="fill: #0000ff; stroke: #000000; stroke-width: 0.5; stroke-linejoin: miter"/>
   </g>
   <g id="patch_17">
    <path d="M 212.4 320.4 
L 268.2 320.4 
L 268.2 264.96 
L 212.4 264.96 
z
" clip-path="url(#p2a739610c0)" style="fill: #ffffff; stroke: #000000; stroke-width: 0.5; stroke-linejoin: miter"/>
   </g>
   <g id="patch_18">
    <path d="M 212.4 264.96 
L 268.2 264.96 
L 268.2 209.52 
L 212.4 209.52 
z
" clip-path="url(#p2a739610c0)" style="fill: #ffffff; stroke: #000000; stroke-width: 0.5; stroke-linejoin: miter"/>
   </g>
   <g id="patch_19">
    <path d="M 212.4 209.52 
L 268.2 209.52 
L 268.2 154.08 
L 212.4 154.08 
z
" clip-path="url(#p2a739610c0)" style="fill: #ffffff; stroke: #000000; stroke-width: 0.5; stroke-linejoin: miter"/>
   </g>
   <g id="patch_20">
    <path d="M 212.4 154.08 
L 268.2 154.08 
L 268.2 98.64 
L 212.4 98.64 
z
" clip-path="url(#p2a739610c0)" style="fill: #ff0000; stroke: #000000; stroke-width: 0.5; stroke-linejoin: miter"/>
   </g>
   <g id="patch_21">
    <path d="M 212.4 98.64 
L 268.2 98.64 
L 268.2 43.2 
L 212.4 43.2 
z
" clip-path="url(#p2a739610c0)" style="fill: #ffffff; stroke: #000000; stroke-width: 0.5; stroke-linejoin: miter"/>
   </g>
   <g id="patch_22">
    <path d="M 268.2 320.4 
L 324 320.4 
L 324 264.96 
L 268.2 264.96 
z
" clip-path="url(#p2a739610c0)" style="fill: #ffffff; stroke: #000000; stroke-width: 0.5; stroke-linejoin: miter"/>
   </g>
   <g id="patch_23">
    <path d="M 268.2 264.96 
L 324 264.96 
L 324 209.52 
L 268.2 209.52 
z
" clip-path="url(#p2a739610c0)" style="fill: #ffffff; stroke: #000000; stroke-width: 0.5; stroke-linejoin: miter"/>
   </g>
   <g id="patch_24">
    <path d="M 268.2 209.52 
L 324 209.52 
L 324 154.08 
L 268.2 154.08 
z
" clip-path="url(#p2a739610c0)" style="fill: #ffff00; stroke: #000000; stroke-width: 0.5; stroke-linejoin: miter"/>
   </g>
   <g id="patch_25">
    <path d="M 268.2 154.08 
L 324 154.08 
L 324 98.64 
L 268.2 98.64 
z
" clip-path="url(#p2a739610c0)" style="fill: #ffffff; stroke: #000000; stroke-width: 0.5; stroke-linejoin: miter"/>
   </g>
   <g id="patch_26">
    <path d="M 268.2 98.64 
L 324 98.64 
L 324 43.2 
L 268.2 43.2 
z
" clip-path="url(#p2a739610c0)" style="fill: #ffffff; stroke: #000000; stroke-width: 0.5; stroke-linejoin: miter"/>
   </g>
  </g>
 </g>
 <defs>
  <clipPath id="p2a739610c0">
   <rect x="45" y="43.2" width="279" height="277.2"/>
  </clipPath>
 </defs>
</svg>
